<svg width="600" height="264" viewBox="0 0 600 264" fill="none" xmlns="http://www.w3.org/2000/svg">
<g clip-path="url(#clip0_1_2)">
<path d="M260 50C260 44.4772 264.477 40 270 40H330C335.523 40 340 44.4772 340 50V50C340 55.5228 335.523 60 330 60H270C264.477 60 260 55.5228 260 50V50Z" fill="#3662E3"/>
<path fill-rule="evenodd" clip-rule="evenodd" d="M360 20H240V140H360V20ZM240 0C228.954 0 220 8.95431 220 20V140C220 151.046 228.954 160 240 160H360C371.046 160 380 151.046 380 140V20C380 8.95431 371.046 0 360 0H240Z" fill="#3662E3"/>
<path fill-rule="evenodd" clip-rule="evenodd" d="M310 40H330C335.523 40 340 44.4772 340 50C340 55.5228 335.523 60 330 60H310L310 110C310 115.523 305.523 120 300 120C294.477 120 290 115.523 290 110L290 60C290 48.9543 298.954 40 310 40Z" fill="#002966"/>
<path d="M11.4818 263V233.432H1.45783V226.488H29.7938V233.432H19.7698V263H11.4818ZM75.4128 244.52L74.5168 247.88H82.3008L81.4608 244.52C80.9755 242.691 80.4715 240.749 79.9488 238.696C79.4635 236.643 78.9782 234.664 78.4928 232.76H78.2688C77.8208 234.701 77.3542 236.699 76.8688 238.752C76.4208 240.768 75.9355 242.691 75.4128 244.52ZM62.1968 263L73.6208 226.488H83.5328L94.9568 263H86.2208L83.9808 254.32H72.8368L70.5968 263H62.1968ZM143.69 263.672C141.301 263.672 138.912 263.224 136.522 262.328C134.17 261.432 132.061 260.125 130.194 258.408L134.898 252.752C136.205 253.872 137.661 254.787 139.266 255.496C140.872 256.205 142.421 256.56 143.914 256.56C145.632 256.56 146.901 256.243 147.722 255.608C148.581 254.973 149.01 254.115 149.01 253.032C149.01 251.875 148.525 251.035 147.554 250.512C146.621 249.952 145.352 249.336 143.746 248.664L138.986 246.648C137.754 246.125 136.578 245.435 135.458 244.576C134.338 243.68 133.424 242.579 132.714 241.272C132.005 239.965 131.65 238.435 131.65 236.68C131.65 234.664 132.192 232.835 133.274 231.192C134.394 229.549 135.925 228.243 137.866 227.272C139.845 226.301 142.104 225.816 144.642 225.816C146.733 225.816 148.824 226.227 150.914 227.048C153.005 227.869 154.834 229.064 156.402 230.632L152.202 235.84C151.008 234.907 149.813 234.197 148.618 233.712C147.424 233.189 146.098 232.928 144.642 232.928C143.224 232.928 142.085 233.227 141.226 233.824C140.405 234.384 139.994 235.187 139.994 236.232C139.994 237.352 140.517 238.192 141.562 238.752C142.645 239.312 143.97 239.909 145.538 240.544L150.242 242.448C152.445 243.344 154.2 244.576 155.506 246.144C156.813 247.712 157.466 249.784 157.466 252.36C157.466 254.376 156.925 256.243 155.842 257.96C154.76 259.677 153.192 261.059 151.138 262.104C149.085 263.149 146.602 263.672 143.69 263.672ZM197.264 263V226.488H205.496V241.44H205.72L216.584 226.488H225.656L214.624 241.048L227.672 263H218.656L209.752 247.6L205.496 253.2V263H197.264ZM265.262 263V226.488H273.494V256.056H287.942V263H265.262ZM327.846 263V226.488H336.078V263H327.846ZM389.434 263.672C387.045 263.672 384.655 263.224 382.266 262.328C379.914 261.432 377.805 260.125 375.938 258.408L380.642 252.752C381.949 253.872 383.405 254.787 385.01 255.496C386.615 256.205 388.165 256.56 389.658 256.56C391.375 256.56 392.645 256.243 393.466 255.608C394.325 254.973 394.754 254.115 394.754 253.032C394.754 251.875 394.269 251.035 393.298 250.512C392.365 249.952 391.095 249.336 389.49 248.664L384.73 246.648C383.498 246.125 382.322 245.435 381.202 244.576C380.082 243.68 379.167 242.579 378.458 241.272C377.749 239.965 377.394 238.435 377.394 236.68C377.394 234.664 377.935 232.835 379.018 231.192C380.138 229.549 381.669 228.243 383.61 227.272C385.589 226.301 387.847 225.816 390.386 225.816C392.477 225.816 394.567 226.227 396.658 227.048C398.749 227.869 400.578 229.064 402.146 230.632L397.946 235.84C396.751 234.907 395.557 234.197 394.362 233.712C393.167 233.189 391.842 232.928 390.386 232.928C388.967 232.928 387.829 233.227 386.97 233.824C386.149 234.384 385.738 235.187 385.738 236.232C385.738 237.352 386.261 238.192 387.306 238.752C388.389 239.312 389.714 239.909 391.282 240.544L395.986 242.448C398.189 243.344 399.943 244.576 401.25 246.144C402.557 247.712 403.21 249.784 403.21 252.36C403.21 254.376 402.669 256.243 401.586 257.96C400.503 259.677 398.935 261.059 396.882 262.104C394.829 263.149 392.346 263.672 389.434 263.672ZM449.026 263V233.432H439.002V226.488H467.338V233.432H457.314V263H449.026ZM506.631 263V226.488H529.479V233.432H514.863V240.768H527.295V247.656H514.863V256.056H530.039V263H506.631ZM570.91 263V226.488H584.07C586.646 226.488 588.998 226.843 591.126 227.552C593.254 228.224 594.953 229.381 596.222 231.024C597.492 232.667 598.126 234.944 598.126 237.856C598.126 240.544 597.529 242.765 596.334 244.52C595.177 246.237 593.609 247.525 591.63 248.384L599.918 263H590.678L583.678 249.84H579.142V263H570.91ZM579.142 243.288H583.398C585.564 243.288 587.206 242.84 588.326 241.944C589.484 241.011 590.062 239.648 590.062 237.856C590.062 236.064 589.484 234.813 588.326 234.104C587.206 233.395 585.564 233.04 583.398 233.04H579.142V243.288Z" fill="#002966"/>
</g>
<defs>
<clipPath id="clip0_1_2">
<rect width="600" height="264" fill="white"/>
</clipPath>
</defs>
</svg>
