<svg width="820" height="160" viewBox="0 0 820 160" fill="none" xmlns="http://www.w3.org/2000/svg">
<g clip-path="url(#clip0_3_46)">
<path d="M40 50C40 44.4772 44.4772 40 50 40H110C115.523 40 120 44.4772 120 50V50C120 55.5228 115.523 60 110 60H50C44.4772 60 40 55.5228 40 50V50Z" fill="#3662E3"/>
<path fill-rule="evenodd" clip-rule="evenodd" d="M140 20H20V140H140V20ZM20 0C8.95431 0 0 8.95431 0 20V140C0 151.046 8.95431 160 20 160H140C151.046 160 160 151.046 160 140V20C160 8.95431 151.046 0 140 0H20Z" fill="#3662E3"/>
<path fill-rule="evenodd" clip-rule="evenodd" d="M90 40H110C115.523 40 120 44.4772 120 50C120 55.5228 115.523 60 110 60H90V110C90 115.523 85.5229 120 80 120C74.4771 120 70 115.523 70 110V60C70 48.9543 78.9543 40 90 40Z" fill="#002966"/>
<path d="M231.424 105V75.432H221.4V68.488H249.736V75.432H239.712V105H231.424ZM295.355 86.52L294.459 89.88H302.243L301.403 86.52C300.918 84.6907 300.414 82.7493 299.891 80.696C299.406 78.6427 298.92 76.664 298.435 74.76H298.211C297.763 76.7013 297.296 78.6987 296.811 80.752C296.363 82.768 295.878 84.6907 295.355 86.52ZM282.139 105L293.563 68.488H303.475L314.899 105H306.163L303.923 96.32H292.779L290.539 105H282.139ZM363.633 105.672C361.243 105.672 358.854 105.224 356.465 104.328C354.113 103.432 352.003 102.125 350.137 100.408L354.841 94.752C356.147 95.872 357.603 96.7867 359.209 97.496C360.814 98.2053 362.363 98.56 363.857 98.56C365.574 98.56 366.843 98.2427 367.665 97.608C368.523 96.9733 368.953 96.1147 368.953 95.032C368.953 93.8747 368.467 93.0347 367.497 92.512C366.563 91.952 365.294 91.336 363.689 90.664L358.929 88.648C357.697 88.1253 356.521 87.4347 355.401 86.576C354.281 85.68 353.366 84.5787 352.657 83.272C351.947 81.9653 351.593 80.4347 351.593 78.68C351.593 76.664 352.134 74.8347 353.217 73.192C354.337 71.5493 355.867 70.2427 357.809 69.272C359.787 68.3013 362.046 67.816 364.585 67.816C366.675 67.816 368.766 68.2267 370.857 69.048C372.947 69.8693 374.777 71.064 376.345 72.632L372.145 77.84C370.95 76.9067 369.755 76.1973 368.561 75.712C367.366 75.1893 366.041 74.928 364.585 74.928C363.166 74.928 362.027 75.2267 361.169 75.824C360.347 76.384 359.937 77.1867 359.937 78.232C359.937 79.352 360.459 80.192 361.505 80.752C362.587 81.312 363.913 81.9093 365.481 82.544L370.185 84.448C372.387 85.344 374.142 86.576 375.449 88.144C376.755 89.712 377.409 91.784 377.409 94.36C377.409 96.376 376.867 98.2427 375.785 99.96C374.702 101.677 373.134 103.059 371.081 104.104C369.027 105.149 366.545 105.672 363.633 105.672ZM417.206 105V68.488H425.438V83.44H425.662L436.526 68.488H445.598L434.566 83.048L447.614 105H438.598L429.694 89.6L425.438 95.2V105H417.206ZM485.204 105V68.488H493.436V98.056H507.884V105H485.204ZM547.789 105V68.488H556.021V105H547.789ZM609.376 105.672C606.987 105.672 604.598 105.224 602.208 104.328C599.856 103.432 597.747 102.125 595.88 100.408L600.584 94.752C601.891 95.872 603.347 96.7867 604.952 97.496C606.558 98.2053 608.107 98.56 609.6 98.56C611.318 98.56 612.587 98.2427 613.408 97.608C614.267 96.9733 614.696 96.1147 614.696 95.032C614.696 93.8747 614.211 93.0347 613.24 92.512C612.307 91.952 611.038 91.336 609.432 90.664L604.672 88.648C603.44 88.1253 602.264 87.4347 601.144 86.576C600.024 85.68 599.11 84.5787 598.4 83.272C597.691 81.9653 597.336 80.4347 597.336 78.68C597.336 76.664 597.878 74.8347 598.96 73.192C600.08 71.5493 601.611 70.2427 603.552 69.272C605.531 68.3013 607.79 67.816 610.328 67.816C612.419 67.816 614.51 68.2267 616.6 69.048C618.691 69.8693 620.52 71.064 622.088 72.632L617.888 77.84C616.694 76.9067 615.499 76.1973 614.304 75.712C613.11 75.1893 611.784 74.928 610.328 74.928C608.91 74.928 607.771 75.2267 606.912 75.824C606.091 76.384 605.68 77.1867 605.68 78.232C605.68 79.352 606.203 80.192 607.248 80.752C608.331 81.312 609.656 81.9093 611.224 82.544L615.928 84.448C618.131 85.344 619.886 86.576 621.192 88.144C622.499 89.712 623.152 91.784 623.152 94.36C623.152 96.376 622.611 98.2427 621.528 99.96C620.446 101.677 618.878 103.059 616.824 104.104C614.771 105.149 612.288 105.672 609.376 105.672ZM668.968 105V75.432H658.944V68.488H687.28V75.432H677.256V105H668.968ZM726.573 105V68.488H749.421V75.432H734.805V82.768H747.237V89.656H734.805V98.056H749.981V105H726.573ZM790.853 105V68.488H804.013C806.589 68.488 808.941 68.8427 811.069 69.552C813.197 70.224 814.895 71.3813 816.165 73.024C817.434 74.6667 818.069 76.944 818.069 79.856C818.069 82.544 817.471 84.7653 816.277 86.52C815.119 88.2373 813.551 89.5253 811.573 90.384L819.861 105H810.621L803.621 91.84H799.085V105H790.853ZM799.085 85.288H803.341C805.506 85.288 807.149 84.84 808.269 83.944C809.426 83.0107 810.005 81.648 810.005 79.856C810.005 78.064 809.426 76.8133 808.269 76.104C807.149 75.3947 805.506 75.04 803.341 75.04H799.085V85.288Z" fill="#002966"/>
</g>
<defs>
<clipPath id="clip0_3_46">
<rect width="820" height="160" fill="white"/>
</clipPath>
</defs>
</svg>
